<svg width="288.376953125px" height="120.8px" xmlns="http://www.w3.org/2000/svg" viewBox="105.8115234375 14.600000000000001 288.376953125 120.8" style="background: rgba(0, 0, 0, 0);" preserveAspectRatio="xMidYMid"><defs><filter id="editing-extrude-glow"><feFlood flood-color="#333333" result="flood-1"></feFlood><feMorphology operator="erode" radius="1" in="SourceAlpha" result="erode"></feMorphology><feComposite operator="in" in="flood-1" in2="erode" result="comp1"></feComposite><feConvolveMatrix order="3,3" divisor="1" in="comp1" result="convolve" kernelMatrix="0 0 0 1 1 1 0 0 0"></feConvolveMatrix><feOffset dx="-3" dy="0" in="convolve" result="extrude"></feOffset><feComposite operator="in" in="flood-1" in2="extrude" result="comp-extrude"></feComposite><feFlood flood-color="#000000" result="flood-2"></feFlood><feComposite operator="in" in="flood-2" in2="SourceAlpha" result="comp2"></feComposite><feMorphology operator="dilate" radius="1" in="comp2" result="dilate"></feMorphology><feOffset dx="-4.5" dy="0" in="dilate" result="offset"></feOffset><feGaussianBlur in="offset" stdDeviation="5.8" result="blur"></feGaussianBlur><feComponentTransfer in="blur" result="shadow"><feFuncA type="linear" slope="0.8" intercept="-0.2"></feFuncA></feComponentTransfer><feMerge><feMergeNode in="shadow"></feMergeNode><feMergeNode in="comp-extrude"></feMergeNode><feMergeNode in="SourceGraphic"></feMergeNode></feMerge></filter></defs><g filter="url(#editing-extrude-glow)"><g transform="translate(152.76698791980743, 97.46500015258789)"><path d="M26.05-29.57L26.05-29.57L26.05-29.57Q27.01-31.49 27.01-33.28L27.01-33.28L27.01-33.28Q27.01-35.07 26.82-36.06L26.82-36.06L26.82-36.06Q26.62-37.06 26.18-37.82L26.18-37.82L26.18-37.82Q25.22-39.49 23.30-39.49L23.30-39.49L23.30-39.49Q20.93-39.49 19.01-37.76L19.01-37.76L19.01-37.76Q16.96-35.97 16.96-33.15L16.96-33.15L16.96-33.15Q16.96-31.36 18.21-29.98L18.21-29.98L18.21-29.98Q19.46-28.61 21.38-27.33L21.38-27.33L21.38-27.33Q23.30-26.05 25.47-24.77L25.47-24.77L25.47-24.77Q27.65-23.49 29.57-21.95L29.57-21.95L29.57-21.95Q33.98-18.43 33.98-13.70L33.98-13.70L33.98-13.70Q33.98-10.50 32.29-7.78L32.29-7.78L32.29-7.78Q30.59-5.06 27.78-3.07L27.78-3.07L27.78-3.07Q21.63 1.28 13.50 1.28L13.50 1.28L13.50 1.28Q6.91 1.28 3.52-0.86L3.52-0.86L3.52-0.86Q0.13-3.01 0.13-6.27L0.13-6.27L0.13-6.27Q0.13-12.10 4.67-13.57L4.67-13.57L4.67-13.57Q5.95-14.02 7.90-14.02L7.90-14.02L7.90-14.02Q9.86-14.02 12.10-13.18L12.10-13.18L12.10-13.18Q11.07-10.56 11.07-8.19L11.07-8.19L11.07-8.19Q11.07-3.07 14.72-3.07L14.72-3.07L14.72-3.07Q17.09-3.07 19.04-4.80L19.04-4.80L19.04-4.80Q20.99-6.53 20.99-8.48L20.99-8.48L20.99-8.48Q20.99-10.43 19.74-11.84L19.74-11.84L19.74-11.84Q18.50-13.25 16.64-14.37L16.64-14.37L16.64-14.37Q14.78-15.49 12.64-16.58L12.64-16.58L12.64-16.58Q10.50-17.66 8.64-19.20L8.64-19.20L8.64-19.20Q4.29-22.72 4.29-28.35L4.29-28.35L4.29-28.35Q4.29-32 6.08-34.85L6.08-34.85L6.08-34.85Q7.87-37.70 10.75-39.62L10.75-39.62L10.75-39.62Q16.51-43.52 23.58-43.52L23.58-43.52L23.58-43.52Q30.66-43.52 34.08-41.41L34.08-41.41L34.08-41.41Q37.50-39.30 37.50-35.71L37.50-35.71L37.50-35.71Q37.50-32.58 35.07-30.59L35.07-30.59L35.07-30.59Q32.96-28.93 30.40-28.93L30.40-28.93L30.40-28.93Q27.84-28.93 26.05-29.57ZM43.97-31.17L43.97-31.17L43.97-31.17Q41.79-32.83 41.79-36.38L41.79-36.38L41.79-36.38Q41.79-39.94 44.13-41.79L44.13-41.79L44.13-41.79Q46.46-43.65 50.50-43.65L50.50-43.65L50.50-43.65Q53.06-43.65 59.14-42.75L59.14-42.75L63.49-42.11L63.49-42.11Q65.66-41.86 67.94-41.86L67.94-41.86L67.94-41.86Q70.21-41.86 71.74-42.82L71.74-42.82L71.74-42.82Q74.05-40.77 74.05-37.82L74.05-37.82L74.05-37.82Q74.05-34.88 71.42-32.77L71.42-32.77L71.42-32.77Q68.74-30.53 65.28-30.53L65.28-30.53L65.28-30.53Q63.62-30.53 60.93-30.98L60.93-30.98L60.93-30.98Q57.79-21.12 57.79-14.27L57.79-14.27L57.79-14.27Q57.79-7.42 61.25-3.84L61.25-3.84L61.25-3.84Q59.65-0.96 57.28 0.16L57.28 0.16L57.28 0.16Q54.91 1.28 51.36 1.28L51.36 1.28L51.36 1.28Q47.81 1.28 45.60-0.67L45.60-0.67L45.60-0.67Q43.39-2.62 43.39-6.66L43.39-6.66L43.39-6.66Q43.39-11.33 45.95-19.01L45.95-19.01L45.95-19.01Q48.51-26.62 52.35-32.45L52.35-32.45L52.35-32.45Q50.50-32.64 48.58-32.64L48.58-32.64L48.58-32.64Q44.61-32.64 43.97-31.17ZM72.96-15.62L72.96-15.62L72.96-15.62Q72.96-27.71 79.23-35.33L79.23-35.33L79.23-35.33Q85.89-43.58 97.47-43.58L97.47-43.58L97.47-43.58Q105.86-43.58 110.08-39.52L110.08-39.52L110.08-39.52Q114.30-35.46 114.30-26.88L114.30-26.88L114.30-26.88Q114.30-13.82 107.65-6.21L107.65-6.21L107.65-6.21Q101.06 1.28 89.98 1.28L89.98 1.28L89.98 1.28Q81.34 1.28 77.15-3.04L77.15-3.04L77.15-3.04Q72.96-7.36 72.96-15.62ZM89.79-28.86L89.79-28.86L89.79-28.86Q86.91-17.34 86.91-8.26L86.91-8.26L86.91-8.26Q86.91-6.08 87.65-4.67L87.65-4.67L87.65-4.67Q88.38-3.26 90.34-3.26L90.34-3.26L90.34-3.26Q92.29-3.26 93.50-4.19L93.50-4.19L93.50-4.19Q94.72-5.12 95.68-7.23L95.68-7.23L95.68-7.23Q97.22-10.69 98.66-18.02L98.66-18.02L98.66-18.02Q100.10-25.34 100.22-28.38L100.22-28.38L100.22-28.38Q100.35-31.42 100.35-33.73L100.35-33.73L100.35-33.73Q100.35-36.03 99.65-37.50L99.65-37.50L99.65-37.50Q98.94-38.98 97.06-38.98L97.06-38.98L97.06-38.98Q95.17-38.98 93.89-37.82L93.89-37.82L93.89-37.82Q91.52-35.65 89.79-28.86ZM130.56 0L116.86 0L124.67-42.05L124.67-42.05Q131.01-42.75 140.26-42.75L140.26-42.75L140.26-42.75Q149.50-42.75 153.79-40.06L153.79-40.06L153.79-40.06Q158.08-37.38 158.08-31.97L158.08-31.97L158.08-31.97Q158.08-26.56 155.30-23.17L155.30-23.17L155.30-23.17Q152.51-19.78 147.71-18.69L147.71-18.69L147.71-18.69Q148.80-13.38 151.30-9.09L151.30-9.09L151.30-9.09Q153.60-5.06 156.29-3.78L156.29-3.78L156.29-3.78Q155.33-1.09 153.38 0.10L153.38 0.10L153.38 0.10Q151.42 1.28 148.64 1.28L148.64 1.28L148.64 1.28Q145.86 1.28 143.68-0.35L143.68-0.35L143.68-0.35Q141.50-1.98 139.78-4.99L139.78-4.99L139.78-4.99Q136.13-11.52 135.74-21.82L135.74-21.82L136.19-21.82L136.19-21.82Q140.93-21.95 143.30-24.42L143.30-24.42L143.30-24.42Q145.66-26.88 145.66-32.06L145.66-32.06L145.66-32.06Q145.66-38.53 140.22-38.78L140.22-38.78L138.82-38.78L138.82-38.78Q138.24-38.78 137.92-38.72L137.92-38.72L130.56 0ZM188.35-9.86L188.35-9.86L188.35-9.86Q189.57-8.32 189.57-5.82L189.57-5.82L189.57-5.82Q189.57-2.37 187.01-0.54L187.01-0.54L187.01-0.54Q184.45 1.28 180.42 1.28L180.42 1.28L180.42 1.28Q178.11 1.28 174.59 0.77L174.59 0.77L174.59 0.77Q167.68-0.32 165.57-0.32L165.57-0.32L165.57-0.32Q163.46-0.32 162.62-0.22L162.62-0.22L162.62-0.22Q161.79-0.13 160.45 0L160.45 0L168.32-42.24L195.90-42.24L195.90-42.24Q195.90-38.34 194.02-36.29L194.02-36.29L194.02-36.29Q192.13-34.24 188.42-34.24L188.42-34.24L188.42-34.24Q184.70-34.24 180.93-35.97L180.93-35.97L178.94-24.77L190.34-24.77L190.34-24.77Q190.34-21.38 188.67-19.49L188.67-19.49L188.67-19.49Q187.01-17.60 184.22-17.60L184.22-17.60L184.22-17.60Q181.44-17.60 179.71-18.24L179.71-18.24L179.71-18.24Q177.98-18.88 177.79-19.07L177.79-19.07L175.49-6.98L175.49-6.98Q177.02-6.78 179.90-6.78L179.90-6.78L179.90-6.78Q184.83-6.78 188.35-9.86Z" fill="#eb6c6c"></path></g></g><style>text {
  font-size: 64px;
  font-family: Arial Black;
  dominant-baseline: central;
  text-anchor: middle;
}</style></svg>